<?xml version="1.0" encoding="iso-8859-1"?>
<!-- Generator: Adobe Illustrator 19.1.0, SVG Export Plug-In . SVG Version: 6.00 Build 0)  -->
<svg version="1.1" id="Layer_3" xmlns="http://www.w3.org/2000/svg" xmlns:xlink="http://www.w3.org/1999/xlink" x="0px" y="0px"
	 viewBox="0 0 500 400" style="enable-background:new 0 0 500 400;" xml:space="preserve">
<g>
	<path style="fill:#1F93C1;" d="M367.384,172.725c21.91-2.827,38.852-0.014,50.888,3.891c0.003-0.002,0.003-0.002,0.006-0.005
		c0.118-28.023-24.254-50.8-54.381-50.848c-8.346-0.014-16.219,1.765-23.294,4.873c-13.602-33.966-48.662-58.233-89.941-58.303
		c-53.15-0.086-96.311,39.901-96.408,89.316c-0.004,3.423,0.24,6.785,0.636,10.109c-11.7-3.33-24.444-4.44-37.707-2.63
		c-39.219,5.344-69.812,36.062-72.628,72.822c-0.133,1.738-0.206,3.463-0.221,5.175c-0.4,47.822,51.567,81.172,100.484,66.381
		C248.673,282.104,283.417,183.556,367.384,172.725z"/>
	<path style="fill:#333333;" d="M377.862,203.83c-57.09,10.392-96.081,64.057-135.982,94.025
		c-21.521,16.164-44.135,25.006-65.386,29.472l205.912,0.34c38.048,0.064,70.908-26.887,73.134-62.198
		c0.1-1.517,0.138-3.021,0.124-4.512C455.352,223.728,417.159,196.677,377.862,203.83z"/>
</g>
</svg>
